<svg width="178" height="37" viewBox="0 0 178 37" fill="none" xmlns="http://www.w3.org/2000/svg">
<path d="M55.4782 21.9262C55.2755 22.6622 54.9502 23.2702 54.5022 23.7502C54.0542 24.2195 53.5209 24.5662 52.9022 24.7902C52.2835 25.0035 51.6009 25.1102 50.8542 25.1102C49.7875 25.1102 48.8649 24.8969 48.0862 24.4702C47.3075 24.0329 46.7102 23.4089 46.2942 22.5982C45.8782 21.7875 45.6702 20.8115 45.6702 19.6702C45.6702 18.5289 45.8782 17.5529 46.2942 16.7422C46.7102 15.9315 47.3075 15.3129 48.0862 14.8862C48.8649 14.4489 49.7822 14.2302 50.8382 14.2302C51.5742 14.2302 52.2515 14.3369 52.8702 14.5502C53.4889 14.7529 54.0115 15.0675 54.4382 15.4942C54.8649 15.9209 55.1689 16.4702 55.3502 17.1422L52.9342 18.1182C52.7849 17.4569 52.5395 17.0035 52.1982 16.7582C51.8675 16.5129 51.4462 16.3902 50.9342 16.3902C50.4329 16.3902 49.9955 16.5129 49.6222 16.7582C49.2595 17.0035 48.9769 17.3715 48.7742 17.8622C48.5822 18.3422 48.4862 18.9449 48.4862 19.6702C48.4862 20.3849 48.5769 20.9875 48.7582 21.4782C48.9395 21.9689 49.2115 22.3369 49.5742 22.5822C49.9475 22.8275 50.4062 22.9502 50.9502 22.9502C51.4622 22.9502 51.8942 22.8115 52.2462 22.5342C52.6089 22.2462 52.8542 21.8089 52.9822 21.2222L55.4782 21.9262ZM61.1848 19.8782C61.1848 19.5049 61.0782 19.2115 60.8648 18.9982C60.6622 18.7742 60.3848 18.6622 60.0328 18.6622C59.6808 18.6622 59.3768 18.7529 59.1208 18.9342C58.8755 19.1049 58.7048 19.4142 58.6088 19.8622L56.3048 19.3182C56.4542 18.5502 56.8488 17.9369 57.4888 17.4782C58.1288 17.0195 59.0302 16.7902 60.1928 16.7902C60.9715 16.7902 61.6328 16.9075 62.1768 17.1422C62.7315 17.3662 63.1528 17.7075 63.4408 18.1662C63.7395 18.6142 63.8888 19.1689 63.8888 19.8302V22.7582C63.8888 23.1742 64.0755 23.3822 64.4488 23.3822C64.6408 23.3822 64.7955 23.3609 64.9128 23.3182L64.7528 24.8702C64.4328 25.0195 64.0435 25.0942 63.5848 25.0942C63.1688 25.0942 62.8008 25.0302 62.4808 24.9022C62.1608 24.7635 61.9102 24.5609 61.7288 24.2942C61.5475 24.0169 61.4568 23.6702 61.4568 23.2542V23.1582L61.7608 23.0462C61.7608 23.5049 61.6222 23.8889 61.3448 24.1982C61.0782 24.5075 60.7262 24.7369 60.2888 24.8862C59.8622 25.0355 59.4142 25.1102 58.9448 25.1102C58.4008 25.1102 57.9262 25.0249 57.5208 24.8542C57.1155 24.6835 56.8008 24.4382 56.5768 24.1182C56.3635 23.7875 56.2568 23.3822 56.2568 22.9022C56.2568 22.3262 56.4275 21.8515 56.7688 21.4782C57.1208 21.0942 57.6702 20.8275 58.4168 20.6782L61.4408 20.0542L61.4248 21.4942L59.8888 21.8142C59.5688 21.8782 59.3288 21.9742 59.1688 22.1022C59.0195 22.2195 58.9448 22.4009 58.9448 22.6462C58.9448 22.8809 59.0302 23.0569 59.2008 23.1742C59.3715 23.2915 59.5742 23.3502 59.8088 23.3502C59.9902 23.3502 60.1608 23.3235 60.3208 23.2702C60.4915 23.2169 60.6408 23.1369 60.7688 23.0302C60.8968 22.9129 60.9982 22.7689 61.0728 22.5982C61.1475 22.4275 61.1848 22.2249 61.1848 21.9902V19.8782ZM65.8904 24.9502V16.9502H68.3224L68.4024 18.5022C68.6584 17.9369 69.0158 17.5102 69.4744 17.2222C69.9438 16.9342 70.4824 16.7902 71.0904 16.7902C71.6878 16.7902 72.2051 16.9235 72.6424 17.1902C73.0798 17.4569 73.4051 17.8515 73.6184 18.3742C73.7891 18.0222 74.0078 17.7289 74.2744 17.4942C74.5518 17.2595 74.8664 17.0835 75.2184 16.9662C75.5704 16.8489 75.9331 16.7902 76.3064 16.7902C76.8398 16.7902 77.3091 16.8969 77.7144 17.1102C78.1198 17.3129 78.4398 17.6275 78.6744 18.0542C78.9198 18.4702 79.0424 18.9929 79.0424 19.6222V24.9502H76.3224V20.2462C76.3224 19.7342 76.2211 19.3769 76.0184 19.1742C75.8264 18.9715 75.5651 18.8702 75.2344 18.8702C74.9678 18.8702 74.7224 18.9395 74.4984 19.0782C74.2851 19.2062 74.1198 19.4035 74.0024 19.6702C73.8851 19.9369 73.8264 20.2729 73.8264 20.6782V24.9502H71.1064V20.2462C71.1064 19.7342 71.0051 19.3769 70.8024 19.1742C70.5998 18.9715 70.3384 18.8702 70.0184 18.8702C69.7731 18.8702 69.5384 18.9342 69.3144 19.0622C69.1011 19.1902 68.9304 19.3929 68.8024 19.6702C68.6744 19.9369 68.6104 20.2889 68.6104 20.7262V24.9502H65.8904ZM82.2169 16.0222C81.6623 16.0222 81.2569 15.9209 81.0009 15.7182C80.7556 15.5049 80.6329 15.1742 80.6329 14.7262C80.6329 14.2675 80.7556 13.9369 81.0009 13.7342C81.2569 13.5209 81.6623 13.4142 82.2169 13.4142C82.7609 13.4142 83.1609 13.5209 83.4169 13.7342C83.6729 13.9369 83.8009 14.2675 83.8009 14.7262C83.8009 15.1742 83.6729 15.5049 83.4169 15.7182C83.1609 15.9209 82.7609 16.0222 82.2169 16.0222ZM83.5769 16.9502V24.9502H80.8569V16.9502H83.5769ZM88.1052 13.5582V22.2302C88.1052 22.5822 88.1639 22.8329 88.2812 22.9822C88.3985 23.1315 88.5959 23.2062 88.8732 23.2062C89.0332 23.2062 89.1665 23.1955 89.2732 23.1742C89.3799 23.1529 89.5079 23.1209 89.6572 23.0782L89.4812 24.7102C89.2892 24.8275 89.0385 24.9235 88.7292 24.9982C88.4199 25.0729 88.1159 25.1102 87.8172 25.1102C86.9639 25.1102 86.3452 24.9129 85.9612 24.5182C85.5772 24.1235 85.3852 23.4782 85.3852 22.5822V13.5582H88.1052ZM93.2436 13.5582V22.2302C93.2436 22.5822 93.3022 22.8329 93.4196 22.9822C93.5369 23.1315 93.7342 23.2062 94.0116 23.2062C94.1716 23.2062 94.3049 23.1955 94.4116 23.1742C94.5182 23.1529 94.6462 23.1209 94.7956 23.0782L94.6196 24.7102C94.4276 24.8275 94.1769 24.9235 93.8676 24.9982C93.5582 25.0729 93.2542 25.1102 92.9556 25.1102C92.1022 25.1102 91.4836 24.9129 91.0996 24.5182C90.7156 24.1235 90.5236 23.4782 90.5236 22.5822V13.5582H93.2436ZM99.5979 25.1102C98.7126 25.1102 97.9446 24.9449 97.2939 24.6142C96.6539 24.2835 96.1579 23.8089 95.8059 23.1902C95.4539 22.5715 95.2779 21.8249 95.2779 20.9502C95.2779 20.0755 95.4539 19.3289 95.8059 18.7102C96.1579 18.0915 96.6486 17.6169 97.2779 17.2862C97.9179 16.9555 98.6486 16.7902 99.4699 16.7902C100.313 16.7902 101.027 16.9555 101.614 17.2862C102.211 17.6062 102.665 18.0542 102.974 18.6302C103.283 19.1955 103.438 19.8462 103.438 20.5822C103.438 20.7742 103.433 20.9662 103.422 21.1582C103.411 21.3502 103.395 21.5102 103.374 21.6382H97.0379V20.1822H102.174L100.878 20.6782C100.878 20.0382 100.761 19.5475 100.526 19.2062C100.302 18.8649 99.9499 18.6942 99.4699 18.6942C99.1286 18.6942 98.8353 18.7742 98.5899 18.9342C98.3553 19.0942 98.1739 19.3449 98.0459 19.6862C97.9286 20.0275 97.8699 20.4649 97.8699 20.9982C97.8699 21.5209 97.9393 21.9475 98.0779 22.2782C98.2166 22.5982 98.4139 22.8329 98.6699 22.9822C98.9259 23.1209 99.2353 23.1902 99.5979 23.1902C100.003 23.1902 100.323 23.1102 100.558 22.9502C100.803 22.7902 100.985 22.5662 101.102 22.2782L103.278 22.9982C103.129 23.4569 102.867 23.8462 102.494 24.1662C102.131 24.4755 101.694 24.7102 101.182 24.8702C100.681 25.0302 100.153 25.1102 99.5979 25.1102ZM109.538 24.9502V14.3902H114.674C115.975 14.4009 116.935 14.6515 117.554 15.1422C118.172 15.6222 118.482 16.3209 118.482 17.2382C118.482 17.8355 118.306 18.3529 117.954 18.7902C117.602 19.2169 117.063 19.4889 116.338 19.6062V19.6222C117.148 19.7289 117.751 20.0115 118.146 20.4702C118.551 20.9182 118.754 21.4622 118.754 22.1022C118.754 23.0089 118.434 23.7129 117.794 24.2142C117.154 24.7049 116.194 24.9502 114.914 24.9502H109.538ZM112.194 23.0142H114.45C114.951 23.0142 115.324 22.9129 115.57 22.7102C115.815 22.5075 115.938 22.2142 115.938 21.8302C115.938 21.4569 115.815 21.1742 115.57 20.9822C115.324 20.7795 114.951 20.6782 114.45 20.6782H112.194V23.0142ZM112.194 18.7102H114.194C115.175 18.7102 115.666 18.3262 115.666 17.5582C115.666 16.7902 115.175 16.4062 114.194 16.4062H112.194V18.7102ZM120.187 24.9502V16.9502H122.587L122.699 18.6782C122.902 18.0809 123.201 17.6169 123.595 17.2862C124.001 16.9555 124.513 16.7902 125.131 16.7902C125.334 16.7902 125.505 16.8062 125.643 16.8382C125.793 16.8702 125.91 16.9129 125.995 16.9662L125.723 19.2062C125.617 19.1635 125.478 19.1315 125.307 19.1102C125.147 19.0782 124.95 19.0622 124.715 19.0622C124.395 19.0622 124.097 19.1315 123.819 19.2702C123.542 19.4089 123.318 19.6169 123.147 19.8942C122.987 20.1609 122.907 20.5022 122.907 20.9182V24.9502H120.187ZM129.67 25.1102C129.126 25.1102 128.646 25.0195 128.23 24.8382C127.825 24.6462 127.505 24.3422 127.27 23.9262C127.036 23.5102 126.918 22.9662 126.918 22.2942V16.9502H129.638V21.6542C129.638 22.1662 129.74 22.5235 129.942 22.7262C130.145 22.9289 130.433 23.0302 130.806 23.0302C130.998 23.0302 131.18 22.9982 131.35 22.9342C131.521 22.8595 131.67 22.7529 131.798 22.6142C131.926 22.4649 132.022 22.2782 132.086 22.0542C132.161 21.8195 132.198 21.5475 132.198 21.2382V16.9502H134.918V24.9502H132.486L132.406 23.4462C132.15 24.0115 131.793 24.4329 131.334 24.7102C130.876 24.9769 130.321 25.1102 129.67 25.1102ZM136.776 24.9502V16.9502H139.208L139.352 19.7022L139.048 19.3982C139.155 18.8222 139.342 18.3422 139.608 17.9582C139.886 17.5742 140.227 17.2862 140.632 17.0942C141.048 16.8915 141.512 16.7902 142.024 16.7902C142.579 16.7902 143.059 16.8969 143.464 17.1102C143.88 17.3235 144.206 17.6382 144.44 18.0542C144.675 18.4702 144.792 18.9929 144.792 19.6222V24.9502H142.072V20.3422C142.072 19.7875 141.966 19.4035 141.752 19.1902C141.539 18.9769 141.267 18.8702 140.936 18.8702C140.68 18.8702 140.44 18.9342 140.216 19.0622C139.992 19.1795 139.816 19.3715 139.688 19.6382C139.56 19.9049 139.496 20.2622 139.496 20.7102V24.9502H136.776ZM150.506 25.1102C149.621 25.1102 148.853 24.9449 148.202 24.6142C147.562 24.2835 147.066 23.8089 146.714 23.1902C146.362 22.5715 146.186 21.8249 146.186 20.9502C146.186 20.0755 146.362 19.3289 146.714 18.7102C147.066 18.0915 147.557 17.6169 148.186 17.2862C148.826 16.9555 149.557 16.7902 150.378 16.7902C151.221 16.7902 151.936 16.9555 152.522 17.2862C153.12 17.6062 153.573 18.0542 153.882 18.6302C154.192 19.1955 154.346 19.8462 154.346 20.5822C154.346 20.7742 154.341 20.9662 154.33 21.1582C154.32 21.3502 154.304 21.5102 154.282 21.6382H147.946V20.1822H153.082L151.786 20.6782C151.786 20.0382 151.669 19.5475 151.434 19.2062C151.21 18.8649 150.858 18.6942 150.378 18.6942C150.037 18.6942 149.744 18.7742 149.498 18.9342C149.264 19.0942 149.082 19.3449 148.954 19.6862C148.837 20.0275 148.778 20.4649 148.778 20.9982C148.778 21.5209 148.848 21.9475 148.986 22.2782C149.125 22.5982 149.322 22.8329 149.578 22.9822C149.834 23.1209 150.144 23.1902 150.506 23.1902C150.912 23.1902 151.232 23.1102 151.466 22.9502C151.712 22.7902 151.893 22.5662 152.01 22.2782L154.186 22.9982C154.037 23.4569 153.776 23.8462 153.402 24.1662C153.04 24.4755 152.602 24.7102 152.09 24.8702C151.589 25.0302 151.061 25.1102 150.506 25.1102ZM159.022 14.4062V22.1022C159.022 22.4862 159.113 22.7635 159.294 22.9342C159.486 23.0942 159.748 23.1742 160.078 23.1742C160.334 23.1742 160.553 23.1475 160.734 23.0942C160.926 23.0302 161.097 22.9395 161.246 22.8222L161.534 24.5022C161.268 24.6942 160.932 24.8435 160.526 24.9502C160.121 25.0569 159.705 25.1102 159.278 25.1102C158.67 25.1102 158.142 25.0249 157.694 24.8542C157.257 24.6835 156.916 24.4115 156.67 24.0382C156.436 23.6649 156.313 23.1689 156.302 22.5502V15.1582L159.022 14.4062ZM161.406 16.9502V18.8862H154.926V16.9502H161.406ZM165.317 14.4062V22.1022C165.317 22.4862 165.407 22.7635 165.589 22.9342C165.781 23.0942 166.042 23.1742 166.373 23.1742C166.629 23.1742 166.847 23.1475 167.029 23.0942C167.221 23.0302 167.391 22.9395 167.541 22.8222L167.829 24.5022C167.562 24.6942 167.226 24.8435 166.821 24.9502C166.415 25.0569 165.999 25.1102 165.573 25.1102C164.965 25.1102 164.437 25.0249 163.989 24.8542C163.551 24.6835 163.21 24.4115 162.965 24.0382C162.73 23.6649 162.607 23.1689 162.597 22.5502V15.1582L165.317 14.4062ZM167.701 16.9502V18.8862H161.221V16.9502H167.701ZM172.765 25.1102C171.88 25.1102 171.112 24.9449 170.461 24.6142C169.821 24.2835 169.325 23.8089 168.973 23.1902C168.621 22.5715 168.445 21.8249 168.445 20.9502C168.445 20.0755 168.621 19.3289 168.973 18.7102C169.325 18.0915 169.816 17.6169 170.445 17.2862C171.085 16.9555 171.816 16.7902 172.637 16.7902C173.48 16.7902 174.195 16.9555 174.781 17.2862C175.379 17.6062 175.832 18.0542 176.141 18.6302C176.451 19.1955 176.605 19.8462 176.605 20.5822C176.605 20.7742 176.6 20.9662 176.589 21.1582C176.579 21.3502 176.563 21.5102 176.541 21.6382H170.205V20.1822H175.341L174.045 20.6782C174.045 20.0382 173.928 19.5475 173.693 19.2062C173.469 18.8649 173.117 18.6942 172.637 18.6942C172.296 18.6942 172.003 18.7742 171.757 18.9342C171.523 19.0942 171.341 19.3449 171.213 19.6862C171.096 20.0275 171.037 20.4649 171.037 20.9982C171.037 21.5209 171.107 21.9475 171.245 22.2782C171.384 22.5982 171.581 22.8329 171.837 22.9822C172.093 23.1209 172.403 23.1902 172.765 23.1902C173.171 23.1902 173.491 23.1102 173.725 22.9502C173.971 22.7902 174.152 22.5662 174.269 22.2782L176.445 22.9982C176.296 23.4569 176.035 23.8462 175.661 24.1662C175.299 24.4755 174.861 24.7102 174.349 24.8702C173.848 25.0302 173.32 25.1102 172.765 25.1102Z" fill="white"/>
<circle cx="18.45" cy="18.45" r="17.1" stroke="#08B8EA" stroke-width="2.7"/>
<path d="M17.9998 18.4498C17.9998 25.1601 17.9998 23.6136 17.9998 30.5998C11.5381 30.5998 6.2998 25.1601 6.2998 18.4498C6.2998 11.7395 11.5381 6.2998 17.9998 6.2998C17.9998 13.2861 17.9998 11.7395 17.9998 18.4498Z" fill="#08B8EA"/>
</svg>
