<svg width="31" height="31" viewBox="0 0 31 31" fill="none" xmlns="http://www.w3.org/2000/svg">
<rect width="31" height="31" rx="4" fill="#102145"/>
<g opacity="0.3" clip-path="url(#clip0_290_92440)">
<path d="M15.6 7.8999C11.4027 7.8999 8 11.3026 8 15.4999C8 19.064 10.4539 22.0548 13.7641 22.8762V17.8225H12.197V15.4999H13.7641V14.4991C13.7641 11.9124 14.9348 10.7134 17.4745 10.7134C17.956 10.7134 18.7868 10.808 19.1267 10.9022V13.0074C18.9473 12.9886 18.6357 12.9791 18.2488 12.9791C17.0027 12.9791 16.5211 13.4512 16.5211 14.6785V15.4999H19.0036L18.5771 17.8225H16.5211V23.0443C20.2843 22.5898 23.2003 19.3856 23.2003 15.4999C23.2 11.3026 19.7973 7.8999 15.6 7.8999Z" fill="white"/>
</g>
<defs>
<clipPath id="clip0_290_92440">
<rect width="15.2" height="15.2" fill="white" transform="translate(8 7.8999)"/>
</clipPath>
</defs>
</svg>
