<svg width="31" height="31" viewBox="0 0 31 31" fill="none" xmlns="http://www.w3.org/2000/svg">
<rect width="31" height="31" rx="4" fill="#253C6C"/>
<g clip-path="url(#clip0_290_92107)">
<path d="M15.2 9.2685C17.1238 9.2685 17.3516 9.2774 18.1081 9.31303C18.8113 9.34568 19.1909 9.47037 19.4441 9.57428C19.7788 9.71084 20.0206 9.87709 20.2709 10.1413C20.5241 10.4085 20.6788 10.6608 20.8081 11.0141C20.9066 11.2813 21.0247 11.6851 21.0556 12.4243C21.0894 13.2258 21.0978 13.4663 21.0978 15.494C21.0978 17.5246 21.0894 17.7651 21.0556 18.5637C21.0247 19.3058 20.9066 19.7066 20.8081 19.9738C20.6788 20.3271 20.5213 20.5824 20.2709 20.8466C20.0178 21.1138 19.7788 21.2771 19.4441 21.4137C19.1909 21.5176 18.8084 21.6422 18.1081 21.6749C17.3488 21.7105 17.1209 21.7194 15.2 21.7194C13.2763 21.7194 13.0484 21.7105 12.2919 21.6749C11.5888 21.6422 11.2091 21.5176 10.9559 21.4137C10.6213 21.2771 10.3794 21.1108 10.1291 20.8466C9.87594 20.5794 9.72125 20.3271 9.59188 19.9738C9.49344 19.7066 9.37531 19.3029 9.34438 18.5637C9.31063 17.7621 9.30219 17.5216 9.30219 15.494C9.30219 13.4633 9.31063 13.2229 9.34438 12.4243C9.37531 11.6821 9.49344 11.2813 9.59188 11.0141C9.72125 10.6608 9.87875 10.4055 10.1291 10.1413C10.3822 9.87412 10.6213 9.71084 10.9559 9.57428C11.2091 9.47037 11.5916 9.34568 12.2919 9.31303C13.0484 9.2774 13.2763 9.2685 15.2 9.2685ZM15.2 7.8999C13.2453 7.8999 13.0006 7.90881 12.2328 7.94443C11.4678 7.98006 10.9419 8.11068 10.4863 8.29771C10.0109 8.49365 9.60875 8.75193 9.20938 9.17646C8.80719 9.59803 8.5625 10.0226 8.37688 10.5213C8.19969 11.0052 8.07594 11.5574 8.04219 12.3649C8.00844 13.1783 8 13.4366 8 15.4999C8 17.5632 8.00844 17.8215 8.04219 18.6319C8.07594 19.4394 8.19969 19.9946 8.37688 20.4755C8.5625 20.9772 8.80719 21.4018 9.20938 21.8233C9.60875 22.2449 10.0109 22.5062 10.4834 22.6991C10.9419 22.8862 11.465 23.0168 12.23 23.0524C12.9978 23.088 13.2425 23.0969 15.1972 23.0969C17.1519 23.0969 17.3966 23.088 18.1644 23.0524C18.9294 23.0168 19.4553 22.8862 19.9109 22.6991C20.3834 22.5062 20.7856 22.2449 21.185 21.8233C21.5844 21.4018 21.8319 20.9772 22.0147 20.4785C22.1919 19.9946 22.3156 19.4424 22.3494 18.6349C22.3831 17.8244 22.3916 17.5662 22.3916 15.5029C22.3916 13.4396 22.3831 13.1813 22.3494 12.3708C22.3156 11.5633 22.1919 11.0082 22.0147 10.5272C21.8375 10.0226 21.5928 9.59803 21.1906 9.17646C20.7913 8.7549 20.3891 8.49365 19.9166 8.30068C19.4581 8.11365 18.935 7.98303 18.17 7.9474C17.3994 7.90881 17.1547 7.8999 15.2 7.8999Z" fill="white"/>
<path d="M15.2004 11.5962C13.1585 11.5962 11.502 13.3448 11.502 15.5001C11.502 17.6554 13.1585 19.404 15.2004 19.404C17.2423 19.404 18.8988 17.6554 18.8988 15.5001C18.8988 13.3448 17.2423 11.5962 15.2004 11.5962ZM15.2004 18.0324C13.8757 18.0324 12.8013 16.8984 12.8013 15.5001C12.8013 14.1018 13.8757 12.9678 15.2004 12.9678C16.5251 12.9678 17.5995 14.1018 17.5995 15.5001C17.5995 16.8984 16.5251 18.0324 15.2004 18.0324Z" fill="white"/>
<path d="M19.9085 11.4417C19.9085 11.9464 19.5204 12.3531 19.0451 12.3531C18.567 12.3531 18.1816 11.9434 18.1816 11.4417C18.1816 10.937 18.5698 10.5303 19.0451 10.5303C19.5204 10.5303 19.9085 10.94 19.9085 11.4417Z" fill="white"/>
</g>
<defs>
<clipPath id="clip0_290_92107">
<rect width="14.4" height="15.2" fill="white" transform="translate(8 7.8999)"/>
</clipPath>
</defs>
</svg>
