<svg width="31" height="31" viewBox="0 0 31 31" fill="none" xmlns="http://www.w3.org/2000/svg">
<rect width="31" height="31" rx="4" fill="#253C6C"/>
<g clip-path="url(#clip0_290_92104)">
<path d="M21.3341 7.8999H9.06313C8.47531 7.8999 8 8.38975 8 8.99537V22.0015C8 22.6071 8.47531 23.0999 9.06313 23.0999H21.3341C21.9219 23.0999 22.4 22.6071 22.4 22.0044V8.99537C22.4 8.38975 21.9219 7.8999 21.3341 7.8999ZM12.2722 20.8526H10.1347V13.5969H12.2722V20.8526ZM11.2034 12.6083C10.5172 12.6083 9.96313 12.0235 9.96313 11.3021C9.96313 10.5807 10.5172 9.99584 11.2034 9.99584C11.8869 9.99584 12.4409 10.5807 12.4409 11.3021C12.4409 12.0205 11.8869 12.6083 11.2034 12.6083ZM20.2709 20.8526H18.1362V17.3257C18.1362 16.4855 18.1222 15.4019 17.0253 15.4019C15.9144 15.4019 15.7456 16.3193 15.7456 17.2663V20.8526H13.6138V13.5969H15.6612V14.5885H15.6894C15.9734 14.0185 16.6709 13.4158 17.7088 13.4158C19.8716 13.4158 20.2709 14.918 20.2709 16.8715V20.8526Z" fill="white"/>
</g>
<defs>
<clipPath id="clip0_290_92104">
<rect width="14.4" height="15.2" fill="white" transform="translate(8 7.8999)"/>
</clipPath>
</defs>
</svg>
