<svg width="31" height="31" viewBox="0 0 31 31" fill="none" xmlns="http://www.w3.org/2000/svg">
<rect width="31" height="31" rx="4" fill="#102145"/>
<g opacity="0.3" clip-path="url(#clip0_290_92428)">
<path d="M23.0486 12.4596C23.0486 12.4596 22.9002 11.4116 22.443 10.9514C21.8641 10.3458 21.2169 10.3428 20.92 10.3072C18.7944 10.1528 15.603 10.1528 15.603 10.1528H15.597C15.597 10.1528 12.4056 10.1528 10.28 10.3072C9.98313 10.3428 9.33594 10.3458 8.75703 10.9514C8.29984 11.4116 8.15437 12.4596 8.15437 12.4596C8.15437 12.4596 8 13.6916 8 14.9206V16.0725C8 17.3016 8.15141 18.5336 8.15141 18.5336C8.15141 18.5336 8.29984 19.5816 8.75406 20.0417C9.33297 20.6474 10.093 20.6266 10.4314 20.6919C11.6486 20.8077 15.6 20.8433 15.6 20.8433C15.6 20.8433 18.7944 20.8374 20.92 20.686C21.2169 20.6503 21.8641 20.6474 22.443 20.0417C22.9002 19.5816 23.0486 18.5336 23.0486 18.5336C23.0486 18.5336 23.2 17.3046 23.2 16.0725V14.9206C23.2 13.6916 23.0486 12.4596 23.0486 12.4596ZM14.0295 17.4708V13.1988L18.1353 15.3422L14.0295 17.4708Z" fill="white"/>
</g>
<defs>
<clipPath id="clip0_290_92428">
<rect width="15.2" height="15.2" fill="white" transform="translate(8 7.8999)"/>
</clipPath>
</defs>
</svg>
