<svg width="31" height="31" viewBox="0 0 31 31" fill="none" xmlns="http://www.w3.org/2000/svg">
<rect width="31" height="31" rx="4" fill="#253C6C"/>
<g clip-path="url(#clip0_290_92101)">
<path d="M23.0486 12.46C23.0486 12.46 22.9002 11.4121 22.443 10.9519C21.8641 10.3463 21.2169 10.3433 20.92 10.3077C18.7944 10.1533 15.603 10.1533 15.603 10.1533H15.597C15.597 10.1533 12.4056 10.1533 10.28 10.3077C9.98313 10.3433 9.33594 10.3463 8.75703 10.9519C8.29984 11.4121 8.15437 12.46 8.15437 12.46C8.15437 12.46 8 13.6921 8 14.9211V16.073C8 17.3021 8.15141 18.5341 8.15141 18.5341C8.15141 18.5341 8.29984 19.5821 8.75406 20.0422C9.33297 20.6479 10.093 20.6271 10.4314 20.6924C11.6486 20.8082 15.6 20.8438 15.6 20.8438C15.6 20.8438 18.7944 20.8379 20.92 20.6864C21.2169 20.6508 21.8641 20.6479 22.443 20.0422C22.9002 19.5821 23.0486 18.5341 23.0486 18.5341C23.0486 18.5341 23.2 17.305 23.2 16.073V14.9211C23.2 13.6921 23.0486 12.46 23.0486 12.46ZM14.0295 17.4713V13.1993L18.1353 15.3427L14.0295 17.4713Z" fill="white"/>
</g>
<defs>
<clipPath id="clip0_290_92101">
<rect width="15.2" height="15.2" fill="white" transform="translate(8 7.8999)"/>
</clipPath>
</defs>
</svg>
